<svg width="1411" height="2667" viewBox="0 0 1411 2667" fill="none" xmlns="http://www.w3.org/2000/svg">
<path d="M1236.75 108.218C1273.56 -51.6811 1460.78 -110.552 1549.79 -120H1610.3C1633.47 743.841 1665.9 2490.39 1610.3 2565.84C1540.79 2660.16 1337.76 2667 1157.24 2667C976.721 2667 998.223 2554.11 817.702 2594.19C637.18 2634.26 540.669 2673.84 193.627 2608.36C-153.414 2542.87 176.625 2339.58 51.6103 2274.09C-73.4047 2208.61 34.6082 1807.88 311.641 1880.7C588.674 1953.51 786.198 1744.35 795.699 1685.22C805.2 1626.09 877.709 1261.53 569.672 1395.92C261.635 1530.31 121.619 1259.08 176.625 1146.2C231.632 1033.31 205.629 1021.58 70.6126 929.706C-37.4003 856.207 59.6113 743.678 121.619 696.601C526.667 393.125 730.692 670.701 832.204 374.066C933.716 77.4308 1190.75 308.093 1236.75 108.218Z" fill="url(#paint0_linear)"/>
<defs>
<linearGradient id="paint0_linear" x1="-71.4045" y1="1368.55" x2="1547.79" y2="1368.55" gradientUnits="userSpaceOnUse">
<stop stop-color="#AFEFFE"/>
<stop offset="1" stop-color="#AEBBF4"/>
</linearGradient>
</defs>
</svg>
