<svg width="50" height="50" viewBox="0 0 50 50" fill="none" xmlns="http://www.w3.org/2000/svg">
<g filter="url(#filter0_d)">
<circle cx="25" cy="25" r="20" fill="white"/>
</g>
<path d="M34.1625 24.437L25.5812 15.862C25.5194 15.8 25.446 15.7509 25.3652 15.7174C25.2844 15.6839 25.1978 15.6667 25.1104 15.6667C25.0229 15.6667 24.9363 15.6839 24.8555 15.7174C24.7747 15.7509 24.7013 15.8 24.6395 15.862L16.0583 24.437C15.8083 24.687 15.6666 25.0265 15.6666 25.3807C15.6666 26.1161 16.2645 26.714 17 26.714H17.9041V32.8328C17.9041 33.2015 18.202 33.4995 18.5708 33.4995H23.777V28.8328H26.1104V33.4995H31.65C32.0187 33.4995 32.3166 33.2015 32.3166 32.8328V26.714H33.2208C33.575 26.714 33.9145 26.5745 34.1645 26.3224C34.6833 25.8015 34.6833 24.9578 34.1625 24.437V24.437Z" fill="#2FADCA"/>
<defs>
<filter id="filter0_d" x="0" y="0" width="50" height="50" filterUnits="userSpaceOnUse" color-interpolation-filters="sRGB">
<feFlood flood-opacity="0" result="BackgroundImageFix"/>
<feColorMatrix in="SourceAlpha" type="matrix" values="0 0 0 0 0 0 0 0 0 0 0 0 0 0 0 0 0 0 127 0"/>
<feOffset/>
<feGaussianBlur stdDeviation="2.5"/>
<feColorMatrix type="matrix" values="0 0 0 0 0.729167 0 0 0 0 0.729167 0 0 0 0 0.729167 0 0 0 0.25 0"/>
<feBlend mode="normal" in2="BackgroundImageFix" result="effect1_dropShadow"/>
<feBlend mode="normal" in="SourceGraphic" in2="effect1_dropShadow" result="shape"/>
</filter>
</defs>
</svg>
