<svg width="50" height="50" viewBox="0 0 50 50" fill="none" xmlns="http://www.w3.org/2000/svg">
<g filter="url(#filter0_d)">
<circle cx="25" cy="25" r="20" fill="white"/>
</g>
<path d="M19.3433 33.7955L19.7356 33.9918C21.3706 34.9726 23.2016 35.4304 25.0327 35.4304C30.7874 35.4304 35.4958 30.722 35.4958 24.9672C35.4958 22.2207 34.3841 19.5395 32.4223 17.5776C30.4604 15.6157 27.8446 14.5041 25.0327 14.5041C19.2779 14.5041 14.5694 19.2125 14.6348 25.0327C14.6348 26.9945 15.2234 28.891 16.2043 30.5258L16.4658 30.9182L15.4196 34.7765L19.3433 33.7955Z" fill="#00E676"/>
<path d="M33.534 16.5313C31.3106 14.2425 28.237 13 25.0981 13C18.4279 13 13.0654 18.4278 13.1308 25.0326C13.1308 27.1253 13.7193 29.1526 14.7003 30.9836L13 37.1961L19.3433 35.5612C21.109 36.5422 23.0707 37 25.0327 37C31.6376 37 37 31.5721 37 24.9674C37 21.763 35.7575 18.7548 33.5341 16.5313H33.534ZM25.0981 34.9728C23.3324 34.9728 21.5667 34.5151 20.0626 33.5996L19.6703 33.4033L15.8774 34.3842L16.8583 30.6568L16.5968 30.2644C13.7193 25.6214 15.0927 19.4741 19.8011 16.5967C24.5095 13.7193 30.5913 15.0927 33.4687 19.8011C36.346 24.5095 34.9727 30.5913 30.2644 33.4687C28.7602 34.4496 26.9292 34.9727 25.0981 34.9727V34.9728ZM30.8528 27.714L30.1335 27.387C30.1335 27.387 29.0872 26.9293 28.4333 26.6023C28.3678 26.6023 28.3025 26.5368 28.237 26.5368C28.0408 26.5368 27.91 26.6023 27.7793 26.6677C27.7793 26.6677 27.7139 26.733 26.7984 27.7794C26.7329 27.9101 26.6022 27.9756 26.4714 27.9756H26.4059C26.3406 27.9756 26.2098 27.9101 26.1444 27.8448L25.8174 27.714C25.0981 27.387 24.4442 26.9946 23.921 26.4715C23.7902 26.3407 23.594 26.2099 23.4632 26.0791C23.0054 25.6214 22.5476 25.0982 22.2207 24.5096L22.1553 24.3788C22.09 24.3134 22.09 24.248 22.0245 24.1173C22.0245 23.9865 22.0245 23.8557 22.09 23.7903C22.09 23.7903 22.3515 23.4633 22.5476 23.2672C22.6785 23.1363 22.7438 22.9402 22.8746 22.8094C23.0054 22.6132 23.0708 22.3516 23.0054 22.1554C22.9401 21.8284 22.1553 20.0627 21.9592 19.6704C21.8283 19.4742 21.6976 19.4088 21.5014 19.3434H20.7821C20.6512 19.3434 20.5205 19.4088 20.3896 19.4088L20.3242 19.4742C20.1934 19.5396 20.0626 19.6704 19.9319 19.7357C19.8011 19.8666 19.7356 19.9973 19.6049 20.1282C19.1471 20.7167 18.8855 21.4361 18.8855 22.1554C18.8855 22.6785 19.0163 23.2017 19.2125 23.6595L19.278 23.8557C19.8665 25.0982 20.6512 26.2099 21.6976 27.1908L21.9592 27.4524C22.1553 27.6486 22.3515 27.7794 22.4823 27.9755C23.8556 29.1527 25.4251 30.0028 27.1907 30.4606C27.3869 30.5259 27.6485 30.5259 27.8447 30.5913H28.4986C28.8256 30.5913 29.2179 30.4606 29.4796 30.3298C29.6757 30.199 29.8065 30.199 29.9373 30.0682L30.0681 29.9374C30.1989 29.8066 30.3297 29.7412 30.4605 29.6105C30.5913 29.4797 30.722 29.3489 30.7875 29.218C30.9183 28.9565 30.9836 28.6295 31.049 28.3026V27.8448C31.049 27.8448 30.9836 27.7794 30.8528 27.714V27.714Z" fill="white"/>
<defs>
<filter id="filter0_d" x="0" y="0" width="50" height="50" filterUnits="userSpaceOnUse" color-interpolation-filters="sRGB">
<feFlood flood-opacity="0" result="BackgroundImageFix"/>
<feColorMatrix in="SourceAlpha" type="matrix" values="0 0 0 0 0 0 0 0 0 0 0 0 0 0 0 0 0 0 127 0"/>
<feOffset/>
<feGaussianBlur stdDeviation="2.5"/>
<feColorMatrix type="matrix" values="0 0 0 0 0.729167 0 0 0 0 0.729167 0 0 0 0 0.729167 0 0 0 0.25 0"/>
<feBlend mode="normal" in2="BackgroundImageFix" result="effect1_dropShadow"/>
<feBlend mode="normal" in="SourceGraphic" in2="effect1_dropShadow" result="shape"/>
</filter>
</defs>
</svg>
