<svg width="24" height="25" viewBox="0 0 24 25" fill="none" xmlns="http://www.w3.org/2000/svg">
<path d="M6.34338 20.7956L6.73572 20.9918C8.37069 21.9727 10.2017 22.4304 12.0328 22.4304C17.7875 22.4304 22.496 17.722 22.496 11.9673C22.496 9.2207 21.3842 6.53949 19.4224 4.57762C17.4605 2.61574 14.8447 1.50407 12.0328 1.50407C6.27804 1.50407 1.56951 6.2125 1.63495 12.0327C1.63495 13.9945 2.2235 15.891 3.2044 17.5258L3.46595 17.9182L2.41972 21.7765L6.34338 20.7956Z" fill="#00E676"/>
<path d="M20.534 3.53132C18.3106 1.24254 15.237 0 12.0981 0C5.42785 0 0.0654365 5.42776 0.130779 12.0326C0.130779 14.1253 0.719332 16.1526 1.70032 17.9836L0 24.1961L6.34331 22.5612C8.10897 23.5422 10.0707 24 12.0327 24C18.6376 24 24 18.5721 24 11.9674C24 8.76296 22.7575 5.75475 20.5341 3.53132H20.534ZM12.0981 21.9728C10.3324 21.9728 8.56674 21.5151 7.06264 20.5996L6.6703 20.4033L2.87742 21.3842L3.85831 17.6568L3.59676 17.2644C0.719333 12.6214 2.09265 6.47409 6.80108 3.59666C11.5095 0.719333 17.5913 2.09265 20.4687 6.80108C23.346 11.5095 21.9727 17.5913 17.2644 20.4687C15.7602 21.4496 13.9292 21.9727 12.0981 21.9727V21.9728ZM17.8528 14.714L17.1335 14.387C17.1335 14.387 16.0872 13.9293 15.4333 13.6023C15.3678 13.6023 15.3025 13.5368 15.237 13.5368C15.0408 13.5368 14.91 13.6023 14.7793 13.6677C14.7793 13.6677 14.7139 13.733 13.7984 14.7794C13.7329 14.9101 13.6022 14.9756 13.4714 14.9756H13.4059C13.3406 14.9756 13.2098 14.9101 13.1444 14.8448L12.8174 14.714C12.0981 14.387 11.4442 13.9946 10.921 13.4715C10.7902 13.3407 10.594 13.2099 10.4632 13.0791C10.0054 12.6214 9.54763 12.0982 9.22073 11.5096L9.15529 11.3788C9.08995 11.3134 9.08995 11.248 9.02452 11.1173C9.02452 10.9865 9.02452 10.8557 9.08995 10.7903C9.08995 10.7903 9.35151 10.4633 9.54763 10.2672C9.67851 10.1363 9.74385 9.94016 9.87463 9.80938C10.0054 9.61316 10.0708 9.3516 10.0054 9.15539C9.94006 8.82839 9.1553 7.06273 8.95917 6.6704C8.8283 6.47418 8.69761 6.40884 8.5014 6.3434H7.78207C7.65119 6.3434 7.52051 6.40884 7.38963 6.40884L7.3242 6.47418C7.19342 6.53962 7.06264 6.6704 6.93186 6.73574C6.80108 6.86661 6.73565 6.9973 6.60487 7.12817C6.14709 7.71672 5.88553 8.43606 5.88553 9.15539C5.88553 9.6785 6.01631 10.2017 6.21253 10.6595L6.27797 10.8557C6.86652 12.0982 7.65119 13.2099 8.69761 14.1908L8.95917 14.4524C9.1553 14.6486 9.35151 14.7794 9.48229 14.9755C10.8556 16.1527 12.4251 17.0028 14.1907 17.4606C14.3869 17.5259 14.6485 17.5259 14.8447 17.5913H15.4986C15.8256 17.5913 16.2179 17.4606 16.4796 17.3298C16.6757 17.199 16.8065 17.199 16.9373 17.0682L17.0681 16.9374C17.1989 16.8066 17.3297 16.7412 17.4605 16.6105C17.5913 16.4797 17.722 16.3489 17.7875 16.218C17.9183 15.9565 17.9836 15.6295 18.049 15.3026V14.8448C18.049 14.8448 17.9836 14.7794 17.8528 14.714V14.714Z" fill="white"/>
</svg>
